<?xml version="1.0" encoding="UTF-8"?>
<svg width="208px" height="62px" viewBox="0 0 208 62" version="1.1" xmlns="http://www.w3.org/2000/svg" xmlns:xlink="http://www.w3.org/1999/xlink">
    <!-- Generator: sketchtool 59.1 (101010) - https://sketch.com -->
    <title>7D1A97C8-5595-45BE-80CF-6C490E94C3ED</title>
    <desc>Created with sketchtool.</desc>
    <g id="Page-1" stroke="none" stroke-width="1" fill="none" fill-rule="evenodd">
        <g id="Tablet-/-0_1-Login" transform="translate(-280.000000, -311.000000)">
            <g id="SIGN-IN" transform="translate(174.000000, 255.000000)">
                <g id="Logo--g-Pictures-/-Logos-/-pic-logo-devspaces-dark" transform="translate(106.000000, 56.000000)">
                    <g id="logo">
                        <g id="Group" transform="translate(87.000000, 0.000000)" fill="#0ABEE8">
                            <path d="M13.6,0.8 C20,0.8 22.7,3.6 22.7,10.2 L22.7,15.9 C22.6,22.3 19.9,25 13.6,25 L0.1,25 L0.1,20.2 C1,20 1.8,19.9 2.4,19.8 L2.4,6.1 L0,5.6 L0,0.8 L13.6,0.8 Z M16,9.4 C16,7.4 14.9,6.3 12.9,6.3 L9.3,6.3 L9.3,19.4 L12.9,19.4 C14.8,19.4 16,18.3 16,16.4 L16,9.4 Z" id="Shape" fill-rule="nonzero"></path>
                            <path d="M34.6,6 C40.3,6 42.8,8.4 42.8,13.6 L42.8,17.9 L31,17.9 L31,18.7 C31,20.4 32.1,20.9 33.4,20.9 L34.6,20.9 C35.8,20.9 36.5,20.6 36.8,19.6 L37,18.7 L42.2,18.7 L42.2,23.1 C40,24.7 37.3,25.4 34.6,25.4 L33.5,25.4 C26.9,25.4 24.6,23 24.6,16.6 L24.6,14 C24.6,8.5 27.5,6.1 33.4,6.1 L34.6,6.1 L34.6,6 Z M37,12.4 C37,11 36,10.3 34.5,10.3 L33.5,10.3 C32,10.3 31,11.1 31,12.5 L31,14.1 L36.9,14.1 L36.9,12.4 L37,12.4 Z" id="Shape" fill-rule="nonzero"></path>
                            <path d="M65.6,11 C64.7,11.2 63.9,11.4 63.1,11.4 L57.8,25 L50.9,25 L45.8,11.4 C45.1,11.3 44.4,11.2 43.7,11 L43.7,6.4 L54,6.4 L54,11 C53.4,11.1 53,11.2 52.5,11.2 L55,19.6 L55,19.6 L58.2,11.3 C57.6,11.2 57,11.1 56.4,11 L56.4,6.4 L65.7,6.4 L65.7,11 L65.6,11 Z" id="Path"></path>
                        </g>
                        <g id="Group" transform="translate(87.000000, 29.000000)" fill="#2C3940">
                            <path d="M6.9,20.4 C7.9,20.7 8.8,20.8 10.3,20.8 L10.9,20.8 C13.1,20.8 13.6,20.5 13.7,19 L13.7,18.6 C13.7,17.5 13.3,17.1 11.1,16.5 L5,15 C1.4,13.9 0.3,12.6 0.3,8.4 L0.3,8 C0.3,3 3,0.8 9.4,0.8 L10.7,0.8 C13.9,0.8 16.5,1.2 19.8,2 L19.8,9.1 L14.4,9.1 L13.6,6.3 C12.8,5.9 11.9,5.9 10.9,5.9 L9.5,5.9 C7.9,5.9 7.3,6.3 7.3,7.6 L7.3,7.8 C7.3,8.7 7.7,9.2 8.8,9.5 L15.6,11.2 C19.2,12.1 20.4,13.7 20.4,17.2 L20.4,18.7 C20.4,23.7 17.6,25.9 11.3,25.9 L9.5,25.9 C6.1,25.9 4.6,25.5 0.6,24.3 L0.6,17.7 L6.3,17.7 L6.9,20.4 Z" id="Path"></path>
                            <path d="M37.2,6.5 C40.2,6.5 42.3,8.5 42.3,13.5 L42.3,19.8 C42.3,23.9 39.8,25.7 36.8,25.7 L36.2,25.7 C33.7,25.7 32.5,25.1 30.5,24.4 L30.5,27.2 C31.2,27.3 32.4,27.4 33.1,27.5 L33.1,32.1 L22,32.1 L22,27.5 C22.7,27.4 23.3,27.3 24,27.2 L24,11.9 C23.4,11.8 22.8,11.7 22.1,11.5 L22.1,6.9 L30.5,6.9 L30.5,9 C32.2,7.9 34.2,6.5 36.6,6.5 L37.2,6.5 Z M35.8,15.4 C35.8,12.6 35.6,12 33.9,12 L33.5,12 C32.6,12 31.6,12.3 30.6,12.9 L30.6,20 C31.7,20.6 32.5,20.7 33.4,20.7 L33.9,20.7 C35.6,20.7 35.8,20.1 35.8,17.1 L35.8,15.4 L35.8,15.4 Z" id="Shape" fill-rule="nonzero"></path>
                            <path d="M63.7,20.9 L63.7,25.5 L55.3,25.5 L55.3,23.3 C53.7,24.6 51.9,25.8 49.5,25.8 L49,25.8 C45.9,25.8 43.8,25.4 43.8,20.5 L43.8,19.7 C43.8,15.6 46.3,15.1 49.3,14.7 C51.8,14.4 53,14.3 55.3,14.1 L55.3,13.4 C55.3,11.8 54.5,11.2 53,11.2 C52.3,11.2 51.2,11.2 50.4,11.4 L50.1,13 L45.3,13 L45.3,7.3 C48,6.8 51.5,6.5 53.8,6.5 L55.5,6.5 C59.5,6.5 61.8,9.1 61.8,13.1 L61.8,20.5 L63.7,20.9 Z M52.5,21.1 C53.4,21.1 54.6,20.5 55.3,19.8 L55.3,17 C54.5,17.1 53.3,17.3 52.2,17.5 C51,17.7 50.5,18.2 50.5,19.1 L50.5,19.7 C50.5,20.7 50.9,21.1 52.1,21.1 L52.5,21.1 Z" id="Shape" fill-rule="nonzero"></path>
                            <path d="M82,23.7 C79.8,25 77.1,26 74.4,26 L72.7,26 C67.2,26 64.8,23.5 64.8,18.3 L64.8,13.8 C64.8,9 67.8,6.5 72.7,6.5 L74.7,6.5 C77.2,6.5 79.1,6.8 81.8,7.4 L81.8,14.5 L76.9,14.5 L76.3,11.4 C75.5,11.3 74.8,11.3 73.7,11.3 C72.1,11.3 71.2,12 71.2,14.1 L71.2,18.8 C71.2,20.8 72.2,21.3 73.5,21.3 L74.1,21.3 C75.3,21.3 76,20.9 76.4,19.9 L76.5,19.3 L81.8,19.3 L81.8,23.7 L82,23.7 Z" id="Path"></path>
                            <path d="M93.6,6.5 C99.3,6.5 101.8,8.9 101.8,14.1 L101.8,18.4 L90,18.4 L90,19.2 C90,20.9 91.1,21.4 92.4,21.4 L93.6,21.4 C94.8,21.4 95.5,21.1 95.8,20.1 L96,19.2 L101.2,19.2 L101.2,23.6 C99,25.2 96.3,25.9 93.6,25.9 L92.5,25.9 C85.9,25.9 83.6,23.5 83.6,17.1 L83.6,14.4 C83.6,8.9 86.5,6.5 92.4,6.5 L93.6,6.5 L93.6,6.5 Z M96,12.9 C96,11.5 95,10.8 93.5,10.8 L92.5,10.8 C91,10.8 90,11.6 90,13 L90,14.6 L95.9,14.6 L95.9,12.9 L96,12.9 Z" id="Shape" fill-rule="nonzero"></path>
                            <path d="M103.8,12 C103.8,8.2 106.3,6.5 111.5,6.5 L112.1,6.5 C114.6,6.5 117.9,6.8 120.3,7.6 L120.3,12.8 L115,12.8 L114.6,11 C113.8,10.8 113,10.8 112.2,10.8 C110.7,10.8 109.9,11.1 109.9,11.9 L109.9,12.1 C109.9,13.1 110.7,13 115.6,14 C119.6,14.8 121,16.2 121,18.6 L121,19.8 C121,24.1 118.5,26 113.4,26 L112,26 C109.5,26 106.1,25.7 103.8,24.1 L103.8,19 L109,19 L109.2,20.3 C109.6,21.1 110.9,21.5 111.8,21.5 L112.8,21.5 C114,21.5 114.7,21 114.7,20 L114.7,19.7 C114.7,18.7 114.1,18.5 109.3,17.7 C104.9,16.9 103.8,15.3 103.8,12.7 L103.8,12 L103.8,12 Z" id="Path"></path>
                        </g>
                        <path d="M14,4.7 C10,4.7 8.9,6 8.9,9.5 L8.9,19.7 C9,24.6 7.8,26.2 3.5,27 C7.9,28.4 9.1,30 9.1,34.1 L9.1,47.7 C9.1,51.2 10.2,52.4 14.2,52.4 L14.2,56 C6.7,56.6 3.6,53.6 3.6,48 L3.6,33.2 C3.6,30.2 2.6,30 0,29 L0,25 C2.8,24.1 3.4,24.1 3.4,20.5 L3.4,9 C3.4,3.5 6.5,0.5 14,1.1 L14,4.7 Z" id="Path" fill="#0ABEE8"></path>
                        <path d="M56.3,1.1 C63.9,0.5 66.9,3.5 66.9,9 L66.9,20.5 C66.9,24.1 67.5,24.1 70.3,25 L70.3,29 C67.8,30 66.7,30.2 66.7,33.2 L66.7,48 C66.7,53.5 63.7,56.5 56.1,55.9 L56.1,52.3 C60.1,52.3 61.2,51.1 61.2,47.6 L61.2,34.1 C61.3,30 62.4,28.3 66.8,27 C62.5,26.2 61.3,24.5 61.4,19.7 L61.4,9.4 C61.4,5.9 60.3,4.6 56.3,4.6 L56.3,1.1 Z" id="Path" fill="#0ABEE8"></path>
                        <g id="Group" transform="translate(15.000000, 13.000000)" fill="#2C3940">
                            <path d="M6.9,4.9 L1.4,4.9 C1,4.9 0.6,4.5 0.6,4.1 L0.6,1.7 C0.6,1.3 1,0.9 1.4,0.9 L6.9,0.9 C7.3,0.9 7.7,1.3 7.7,1.7 L7.7,4.1 C7.7,4.6 7.3,4.9 6.9,4.9 Z" id="Path"></path>
                            <path d="M39.2,4.9 L12.2,4.9 C11.8,4.9 11.4,4.5 11.4,4.1 L11.4,1.7 C11.4,1.3 11.8,0.9 12.2,0.9 L39.2,0.9 C39.6,0.9 40,1.3 40,1.7 L40,4.1 C40,4.6 39.7,4.9 39.2,4.9 Z" id="Path"></path>
                            <path d="M39.6,13.3 L1.4,13.3 C1,13.3 0.6,12.9 0.6,12.5 L0.6,10.1 C0.6,9.7 1,9.3 1.4,9.3 L39.6,9.3 C40,9.3 40.4,9.7 40.4,10.1 L40.4,12.5 C40.4,13 40,13.3 39.6,13.3 Z" id="Path"></path>
                            <path d="M14.3,21.4 L1.4,21.4 C1,21.4 0.6,21 0.6,20.6 L0.6,18.2 C0.6,17.8 1,17.4 1.4,17.4 L14.3,17.4 C14.7,17.4 15.1,17.8 15.1,18.2 L15.1,20.6 C15.1,21.1 14.7,21.4 14.3,21.4 Z" id="Path"></path>
                            <path d="M39.2,21.4 L19.6,21.4 C19.2,21.4 18.8,21 18.8,20.6 L18.8,18.2 C18.8,17.8 19.2,17.4 19.6,17.4 L39.2,17.4 C39.6,17.4 40,17.8 40,18.2 L40,20.6 C40,21.1 39.7,21.4 39.2,21.4 Z" id="Path"></path>
                            <path d="M39.6,29.9 L1.4,29.9 C1,29.9 0.6,29.5 0.6,29.1 L0.6,26.7 C0.6,26.3 1,25.9 1.4,25.9 L39.6,25.9 C40,25.9 40.4,26.3 40.4,26.7 L40.4,29.1 C40.4,29.5 40,29.9 39.6,29.9 Z" id="Path"></path>
                        </g>
                    </g>
                </g>
            </g>
        </g>
    </g>
</svg>